<?xml version="1.0" encoding="UTF-8"?>
<!-- Created with Inkscape (http://www.inkscape.org/) -->
<svg width="256" height="256" version="1.1" viewBox="0 0 1200 1200" xml:space="preserve" xmlns="http://www.w3.org/2000/svg"><defs><radialGradient id="radialGradient9283" cx="555.07" cy="1752.2" r="251.1" gradientTransform="matrix(.95444 .93098 1.585 -1.625 -2567 2659.5)" gradientUnits="userSpaceOnUse"><stop stop-color="#ccb0e6" offset="0"/><stop stop-color="#4d2573" stop-opacity=".99296" offset="1"/></radialGradient></defs><path d="m689.64 752.21c128.07-50.679 200.51-172.76 181.7-313.67-13.062-97.851-69.59-165.58-161.84-199.09-87.836-31.906-167.6-13.28-232.09 55.372-71.025 75.598-64.665 190.45 11.56 249.65 52.719 40.946 126.25 35.639 163.96-11.826 29.051-36.586 24.367-68.172-17.07-101.17 19.446 40.866 13.364 74.345-24.006 97.398-36.766 22.693-70.738 11.186-101.67-13.826-17.48-14.133-29.853-31.999-37.426-53.545-22.733-64.705 10.373-139.34 79.238-175.1 69.276-35.959 136.14-27.893 197.08 18.053 70.124 52.865 102.69 125.34 89.952 212.51-16.742 114.64-105.24 199.77-223.59 222.06-112.13 21.119-238.77-39.026-300.85-142.89-41.572-69.545-56.452-144.77-46.306-216.78 33.013-152.72 168.85-267.15 331.43-267.15 53.507 0 104.1 12.413 149.1 34.479-55.273-20.959-116.53-25.239-183.65-10.906-122.46 26.173-202.03 101.84-233.03 224.02-43.906 173.02 95.478 333.4 269.17 311.5 126.6-15.96 199.37-146.9 142.22-255.94 23.17 104.64-6.3958 177.64-88.211 217.81-83.425 40.946-186.28 16.453-248.91-59.292-95.398-115.34-61.332-292.66 71.598-372.67 104.61-62.958 226.54-57.279 326.77 15.2 93.339 67.505 142.93 188.49 127.15 303.42-31.683 154.45-168.37 270.62-332.19 270.62-63.172 0-122.29-17.293-172.93-47.372 80.758 38.426 175.66 43.666 262.87 9.1464" fill="url(#radialGradient9283)" stroke-width="1.3333"/><path transform="scale(4.6875)" d="m40.242 184.9-1.8301 8.6113h9.8379l-4.3066 6.4375h4.3066l-10.117 15.09h23.68l1.8301-8.6113h-9.8379l4.3477-6.4785h-4.3047l10.074-15.049h-23.68zm24.754 0 4.3281 15.049h4.3047l1.2266 4.3047-2.2812 10.785h8.6113l2.2812-10.785 3.0781-4.3047h-4.3047l10.742-15.049h-9.9023l-5.834 8.1816-2.3457-8.1816h-9.9043zm44.133 0c-4.1619 0-8.03 1.472-11.604 4.4141-3.5735 2.9422-5.7984 6.4873-6.6738 10.635h4.3047v0.02149c-0.88978 4.1619-0.17777 7.7123 2.1328 10.654 2.325 2.942 5.5666 4.4141 9.7285 4.4141 4.1619 0 8.03-1.472 11.604-4.4141 3.2434-2.6838 5.3756-5.8755 6.3945-9.5781h-8.6543c-0.47361 1.3204-1.3211 2.4817-2.541 3.4863-1.5356 1.2629-3.1931 1.8945-4.9726 1.8945-1.7797 0-3.1712-0.63159-4.1758-1.8945-0.99026-1.2629-1.2918-2.7829-0.9043-4.5625v-0.02149h-4.3047c0.37316-1.7796 1.3257-3.3015 2.8613-4.5644 1.5356-1.2486 3.195-1.873 4.9746-1.873s3.164 0.62447 4.1543 1.873c0.78934 1.0045 1.1408 2.1731 1.0547 3.5078h8.6543c0.55962-3.7026-0.2166-6.8944-2.3262-9.5781-2.3106-2.942-5.5452-4.4141-9.707-4.4141zm17.223 0-3.209 15.049h4.3066l-3.209 15.09h15.07l1.8301-8.6113h-6.459l1.3789-6.4785h-4.3066l3.207-15.049h-8.6094zm75.346 0-3.209 15.049h4.3066l-3.207 15.09h15.068l1.8301-8.6113h-6.459l0.45313-2.1523h6.457l0.92578-4.3262h-4.3047l0.9043-4.2852h-6.459l0.47461-2.1524h6.457l1.8301-8.6113h-15.068zm-43.057 0.00195c-4.1619 0-8.0281 1.4701-11.602 4.4121-3.5448 2.9134-5.7625 6.43-6.6523 10.549h4.3047c0 0.02869-0.00713 0.06436-0.02149 0.10742-0.88977 4.1619-0.17972 7.7142 2.1309 10.656 2.325 2.942 5.5686 4.4121 9.7305 4.4121s8.0228-1.4701 11.582-4.4121c3.5468-2.92 5.7688-6.4428 6.6719-10.564h2.1543l-3.1855 14.982h8.6094l3.1875-14.982h0.04297l3.2285 14.982h8.6113l3.1856-14.982h-4.3066l3.2305-15.156h-8.6113l-3.207 15.07-3.252-15.07h-8.6094l-3.1875 14.957h-2.1504c0.84668-4.1188 0.12039-7.6354-2.1758-10.549-2.3106-2.942-5.5471-4.4121-9.709-4.4121zm-1.8281 8.6094c1.7796 1e-5 3.164 0.62447 4.1543 1.873 0.9759 1.2342 1.2917 2.7276 0.94726 4.4785h4.3047c0 0.02869-0.00713 0.06436-0.02148 0.10742-0.38758 1.7796-1.3492 3.3015-2.8848 4.5644-1.5212 1.2629-3.1716 1.8945-4.9512 1.8945-1.7797 0-3.1712-0.63159-4.1758-1.8945-0.99026-1.2629-1.2918-2.7849-0.9043-4.5644 0.01435-0.04306 0.02148-0.07873 0.02148-0.10742h-4.3047c0.38748-1.7508 1.3349-3.2443 2.8418-4.4785 1.5356-1.2486 3.1931-1.873 4.9727-1.873zm-94.16 27.91c-1.6341 0-2.9018 0.46025-3.8047 1.3828-0.90294 0.92264-1.3535 2.227-1.3535 3.9102 0 1.0993 0.20498 2.0545 0.61719 2.8691 0.41712 0.8097 1.0176 1.4314 1.8027 1.8633 0.78518 0.43183 1.7202 0.64844 2.8047 0.64844 0.93239 0 1.7968-0.15278 2.5918-0.45703 0.7999-0.30916 1.4738-0.74331 2.0234-1.3027v-3.5781h-4.3945v1.1777h3.0996v1.8691c-0.36313 0.35331-0.83885 0.63372-1.4277 0.83985-0.58397 0.20611-1.2154 0.30859-1.8926 0.30859-1.1876 0-2.1168-0.37709-2.7891-1.1328-0.6723-0.76065-1.0078-1.7952-1.0078-3.1055 0-1.3152 0.31618-2.3353 0.94922-3.0566 0.63304-0.72629 1.5487-1.0879 2.7461-1.0879 0.77044 0 1.4125 0.1344 1.9277 0.4043 0.52018 0.2699 0.92823 0.7002 1.2227 1.2891l1.3398-0.39844c-0.38769-0.85386-0.93979-1.4756-1.6562-1.8633-0.71646-0.38767-1.6505-0.58008-2.7988-0.58008zm92.992 0c-1.634 0-2.9037 0.46025-3.8066 1.3828-0.90294 0.92264-1.3535 2.227-1.3535 3.9102 0 1.0993 0.20693 2.0545 0.61914 2.8691 0.41711 0.8097 1.0176 1.4314 1.8027 1.8633 0.78518 0.43183 1.7202 0.64844 2.8047 0.64844 0.93238 0 1.7949-0.15278 2.5898-0.45703 0.7999-0.30916 1.4758-0.74331 2.0254-1.3027v-3.5781h-4.3945v1.1777h3.0996v1.8691c-0.36313 0.35331-0.84081 0.63372-1.4297 0.83985-0.58397 0.20611-1.2134 0.30859-1.8906 0.30859-1.1876 0-2.1187-0.37709-2.791-1.1328-0.67229-0.76065-1.0078-1.7952-1.0078-3.1055 0-1.3152 0.31617-2.3353 0.94922-3.0566 0.63302-0.72629 1.5487-1.0879 2.7461-1.0879 0.77045 0 1.4125 0.1344 1.9277 0.4043 0.52018 0.2699 0.92822 0.7002 1.2226 1.2891l1.3398-0.39844c-0.38769-0.85386-0.9398-1.4756-1.6562-1.8633-0.71646-0.38767-1.6486-0.58008-2.7969-0.58008zm-79.564 0.1543-4.2324 10.371h1.457l1.1914-3.0332h4.7266l1.1855 3.0332h1.4355l-4.168-10.371h-1.5957zm10.389 0v10.371h1.25v-6.918l-0.029297-1.3926-0.021484-0.8164 0.24219 0.80859 0.41211 1.252 2.7168 7.0664h0.98633l2.6797-7.0664c0.19137-0.49563 0.40797-1.1821 0.64844-2.0606-0.044166 0.70664-0.066407 1.4434-0.066407 2.209v6.918h1.2656v-10.371h-1.8027l-2.709 7.1914c-0.044166 0.10306-0.13022 0.35541-0.25781 0.75782-0.12268 0.39749-0.20488 0.69434-0.24414 0.89062-0.029445-0.14723-0.090355-0.38411-0.18359-0.71289-0.088332-0.33369-0.18115-0.64601-0.2793-0.93555l-2.7598-7.1914h-1.8477zm16.744 0v10.371h8.1719v-1.1484h-6.7656v-3.6133h6.0215v-1.1348h-6.0215v-3.3262h6.4629v-1.1484h-7.8691zm18.432 0v10.371h8.1719v-1.1484h-6.7656v-3.6133h6.0215v-1.1348h-6.0215v-3.3262h6.4629v-1.1484h-7.8691zm14.244 0v10.371h1.252v-6.8887l-0.0371-1.2305-0.03711-0.71289 5.5508 8.832h1.6934v-10.371h-1.2676v6.8008c0 0.43184 0.03095 1.13 0.08984 2.0918l-5.6094-8.8926h-1.6348zm31.145 0v10.371h1.4062v-10.371h-1.4062zm8.2227 0v10.371h1.25v-6.8887l-0.03711-1.2305-0.03516-0.71289 5.5488 8.832h1.6934v-10.371h-1.2656v6.8008c0 0.43184 0.029 1.13 0.08789 2.0918l-5.6094-8.8926h-1.6328zm15.072 0v10.371h8.1719v-1.1484h-6.7656v-3.6133h6.0215v-1.1348h-6.0215v-3.3262h6.4629v-1.1484h-7.8692zm-113.47 1.0605 0.19922 0.60938c0.1374 0.42692 0.2747 0.80982 0.41211 1.1484l1.332 3.4238h-3.8789l1.3242-3.4082c0.24045-0.63794 0.42224-1.161 0.54492-1.5684l0.066406-0.20508zm-59.094 3.4121v1.4609h30.088v-1.4609h-30.088zm190.37 0v1.4609h30.088v-1.4609h-30.088z" fill="#000000" stroke-width=".28444"/></svg>
