<?xml version="1.0" encoding="UTF-8"?>
<!-- Created with Inkscape (http://www.inkscape.org/) -->
<svg width="256" height="256" version="1.1" viewBox="0 0 1200 1200" xml:space="preserve" xmlns="http://www.w3.org/2000/svg" xmlns:xlink="http://www.w3.org/1999/xlink"><defs><radialGradient id="radialGradient9283" cx="555.07" cy="1752.2" r="251.1" gradientTransform="matrix(.71585 -.69825 1.1888 1.2188 -1925.3 5.3808)" gradientUnits="userSpaceOnUse"><stop stop-color="#ccb0e6" offset="0"/><stop stop-color="#4d2573" stop-opacity=".99296" offset="1"/></radialGradient></defs><g transform="matrix(1.3333 0 0 -1.3333 0 2666.7)"><g><path d="m517.24 1435.9c96.055 38.01 150.39 129.57 136.28 235.26-9.797 73.39-52.194 124.19-121.38 149.32-65.879 23.93-125.7 9.96-174.07-41.53-53.27-56.7-48.5-142.84 8.67-187.24 39.54-30.71 94.693-26.73 122.97 8.87 21.789 27.44 18.276 51.13-12.803 75.88 14.585-30.65 10.023-55.76-18.005-73.05-27.575-17.02-53.055-8.39-76.255 10.37-13.11 10.6-22.39 24-28.07 40.16-17.05 48.53 7.78 104.51 59.43 131.33 51.958 26.97 102.11 20.92 147.81-13.54 52.594-39.65 77.016-94.01 67.466-159.39-12.557-85.98-78.929-149.83-167.7-166.55-84.098-15.84-179.08 29.27-225.64 107.17-31.18 52.16-42.34 108.58-34.73 162.59 24.76 114.54 126.64 200.37 248.58 200.37 40.131 0 78.08-9.31 111.83-25.86-41.456 15.72-87.401 18.93-137.74 8.18-91.85-19.63-151.53-76.38-174.78-168.02-32.93-129.77 71.61-250.06 201.88-233.63 94.953 11.97 149.53 110.18 106.67 191.96 17.378-78.48-4.797-133.23-66.16-163.36-62.57-30.71-139.71-12.34-186.69 44.47-71.55 86.51-46 219.5 53.7 279.51 78.46 47.22 169.91 42.96 245.08-11.4 70.006-50.63 107.2-141.37 95.362-227.57-23.763-115.84-126.28-202.97-249.15-202.97-47.38 0-91.72 12.97-129.7 35.53 60.57-28.82 131.75-32.75 197.16-6.86" fill="url(#radialGradient9283)"/><path d="m731.76 1200.2h105.78v5.14h-105.78v-5.14" fill="#231f20"/><path d="m62.458 1200.2h105.78v5.14h-105.78v-5.14" fill="#231f20"/></g><g transform="scale(1,-1)" stroke-width="3.3721" aria-label="Zyclone"><path d="m189.31-1297.1h15.137l-15.288 22.781h34.587l-6.4331 30.273h-83.252l35.571-53.054h-15.137l15.137-22.629h-34.587l6.4331-30.273h83.252z"/><path d="m258.86-1297.1h-15.137l-15.212-52.903h34.814l8.2495 28.76 20.51-28.76h34.814l-37.766 52.903h15.137l-10.823 15.137-8.0225 37.918h-30.273l8.0225-37.918z"/><path d="m349.68-1297.1h15.137v0.076q-2.0435 9.3848 3.1787 16.045 5.2978 6.6602 14.683 6.6602 9.3848 0 17.483-6.6602 6.4331-5.2978 8.9307-12.261h30.425q-5.3735 19.526-22.478 33.679-18.845 15.515-40.793 15.515t-34.209-15.515q-12.185-15.515-7.4927-37.463v-0.076h-15.137q4.6167-21.872 23.462-37.388 18.845-15.515 40.793-15.515t34.133 15.515q11.125 14.153 8.1738 33.679h-30.425q0.45411-7.0386-3.7085-12.336-5.2222-6.5845-14.607-6.5845-9.3848 0-17.483 6.5845-8.0981 6.6601-10.066 16.045z"/><path d="m463.21-1297.1h15.137l-4.8438 22.781h22.705l-6.4331 30.273h-52.979l11.277-53.054h-15.137l11.277-52.903h30.273z"/><path d="m584.38-1297.4h-15.137q1.8164-9.2334-3.3301-15.742-5.2222-6.5845-14.607-6.5845t-17.483 6.5845q-7.9468 6.5088-9.9902 15.742h15.137q0 0.1513-0.0757 0.3784-2.0435 9.3848 3.1787 16.045 5.2978 6.6602 14.683 6.6602 9.3848 0 17.407-6.6602 8.0981-6.6601 10.142-16.045 0.0757-0.2271 0.0757-0.3784zm-75.684 0h-15.137q4.6924-21.721 23.386-37.085 18.845-15.515 40.793-15.515 21.948 0 34.133 15.515 12.109 15.364 7.644 37.085h15.137q0 0.1513-0.0757 0.3784-4.6924 21.948-23.538 37.463-18.77 15.515-40.718 15.515-21.948 0-34.209-15.515-12.185-15.515-7.4927-37.463 0.0757-0.2271 0.0757-0.3784z"/><path d="m652.34-1296.7-11.201 52.676h-30.273l11.201-52.676h-15.137l11.353-53.281h30.273l11.428 52.978 11.277-52.978h30.273l-11.353 53.281h15.137l-11.201 52.676h-30.273l-11.353-52.676z"/><path d="m750.81-1297.1h15.137l-3.2544 15.212h-22.705l-1.5894 7.5684h22.705l-6.4331 30.273h-52.979l11.277-53.054h-15.137l11.277-52.903h52.979l-6.4331 30.273h-22.705l-1.665 7.5684h22.705z"/></g><g transform="scale(1,-1)" stroke-width=".75" aria-label="G A M E  E N G I N E"><path d="m202.13-1203q0-8.8764 4.7617-13.742 4.7617-4.8652 13.379-4.8652 6.0557 0 9.834 2.0444 3.7783 2.0445 5.8228 6.5474l-4.71 1.3974q-1.5527-3.1054-4.2959-4.5288-2.7173-1.4233-6.7803-1.4233-6.3144 0-9.6528 3.8301-3.3384 3.8042-3.3384 10.74 0 6.9097 3.5454 10.921 3.5454 3.9854 9.8081 3.9854 3.5713 0 6.6509-1.0869 3.1055-1.087 5.0205-2.9502v-6.5733h-10.895v-4.1406h15.45v12.577q-2.8984 2.9502-7.1167 4.5806-4.1924 1.6045-9.1094 1.6045-5.7192 0-9.8599-2.2773-4.1406-2.2774-6.3403-6.5474-2.1738-4.2959-2.1738-10.093z"/><path d="m282.69-1184.6-4.1665-10.662h-16.614l-4.1924 10.662h-5.124l14.88-36.463h5.6157l14.647 36.463zm-12.474-32.737-0.23291 0.7246q-0.64697 2.148-1.915 5.5122l-4.6582 11.982h13.638l-4.6841-12.034q-0.72461-1.7857-1.4492-4.0371z"/><path d="m335-1184.6v-24.326q0-4.0372 0.23291-7.7637-1.2681 4.6323-2.2773 7.2461l-9.4199 24.844h-3.4678l-9.5493-24.844-1.4492-4.3994-0.85401-2.8467 0.0776 2.8725 0.10352 4.8912v24.326h-4.3994v-36.463h6.4956l9.7046 25.284q0.51757 1.5269 0.98339 3.2867 0.4917 1.7338 0.64698 2.5102 0.20703-1.0351 0.854-3.1313 0.67285-2.1221 0.90576-2.6656l9.5234-25.284h6.3403v36.463z"/><path d="m362.87-1184.6v-36.463h27.665v4.0372h-22.722v11.697h21.169v3.9854h-21.169v12.706h23.783v4.0371z"/><path d="m427.67-1184.6v-36.463h27.665v4.0372h-22.722v11.697h21.169v3.9854h-21.169v12.706h23.783v4.0371z"/><path d="m501.4-1184.6-19.513-31.055 0.1294 2.5103 0.12939 4.3218v24.223h-4.3994v-36.463h5.7451l19.72 31.262q-0.31055-5.0723-0.31055-7.3496v-23.912h4.4512v36.463z"/><path d="m529.06-1203q0-8.8764 4.7617-13.742 4.7617-4.8652 13.379-4.8652 6.0557 0 9.834 2.0444 3.7783 2.0445 5.8228 6.5474l-4.71 1.3974q-1.5527-3.1054-4.2959-4.5288-2.7173-1.4233-6.7803-1.4233-6.3145 0-9.6528 3.8301-3.3384 3.8042-3.3384 10.74 0 6.9097 3.5454 10.921 3.5454 3.9854 9.8081 3.9854 3.5713 0 6.6509-1.0869 3.1055-1.087 5.0205-2.9502v-6.5733h-10.895v-4.1406h15.45v12.577q-2.8984 2.9502-7.1167 4.5806-4.1924 1.6045-9.1094 1.6045-5.7192 0-9.8599-2.2773-4.1406-2.2774-6.3403-6.5474-2.1738-4.2959-2.1738-10.093z"/><path d="m587.24-1184.6v-36.463h4.9429v36.463z"/><path d="m639.8-1184.6-19.513-31.055 0.1294 2.5103 0.12939 4.3218v24.223h-4.3994v-36.463h5.7451l19.72 31.262q-0.31054-5.0723-0.31054-7.3496v-23.912h4.4512v36.463z"/><path d="m669.14-1184.6v-36.463h27.665v4.0372h-22.722v11.697h21.169v3.9854h-21.169v12.706h23.783v4.0371z"/></g></g></svg>
