<?xml version="1.0" encoding="UTF-8" standalone="no"?>
<!-- Created with Inkscape (http://www.inkscape.org/) -->

<svg
   version="1.1"
   id="svg854"
   xml:space="preserve"
   width="1200"
   height="1200"
   viewBox="0 0 1200 1200"
   sodipodi:docname="zyclone-inkscape.svg"
   inkscape:version="1.1.1 (3bf5ae0d25, 2021-09-20)"
   inkscape:export-filename="/tmp/zyclone.png"
   inkscape:export-xdpi="40.959999"
   inkscape:export-ydpi="40.959999"
   xmlns:inkscape="http://www.inkscape.org/namespaces/inkscape"
   xmlns:sodipodi="http://sodipodi.sourceforge.net/DTD/sodipodi-0.dtd"
   xmlns:xlink="http://www.w3.org/1999/xlink"
   xmlns="http://www.w3.org/2000/svg"
   xmlns:svg="http://www.w3.org/2000/svg"><defs
     id="defs858"><linearGradient
       inkscape:collect="always"
       id="Zyclone_Colors"><stop
         style="stop-color:#ccb0e6;stop-opacity:1"
         offset="0"
         id="stop9277" /><stop
         style="stop-color:#4d2573;stop-opacity:0.99295777"
         offset="1"
         id="stop9279" /></linearGradient><radialGradient
       inkscape:collect="always"
       xlink:href="#Zyclone_Colors"
       id="radialGradient9283"
       cx="555.06726"
       cy="1752.1736"
       fx="555.06726"
       fy="1752.1736"
       r="251.10395"
       gradientTransform="matrix(0.7158524,-0.69825163,1.188827,1.2187937,-1925.3103,5.3808258)"
       gradientUnits="userSpaceOnUse" /></defs><sodipodi:namedview
     id="namedview856"
     pagecolor="#ffffff"
     bordercolor="#666666"
     borderopacity="1.0"
     inkscape:pageshadow="2"
     inkscape:pageopacity="0.0"
     inkscape:pagecheckerboard="0"
     showgrid="false"
     inkscape:zoom="0.4497199"
     inkscape:cx="523.65928"
     inkscape:cy="618.16255"
     inkscape:window-width="1920"
     inkscape:window-height="1057"
     inkscape:window-x="0"
     inkscape:window-y="0"
     inkscape:window-maximized="1"
     inkscape:current-layer="g860" /><g
     id="g860"
     inkscape:groupmode="layer"
     inkscape:label="ink_ext_XXXXXX"
     transform="matrix(1.3333333,0,0,-1.3333333,0,2666.6667)"><path
       d="m 517.23861,1435.9437 c 96.055,38.01 150.389,129.57 136.281,235.26 -9.797,73.39 -52.194,124.19 -121.384,149.32 -65.879,23.93 -125.70404,9.96 -174.07404,-41.53 -53.27,-56.7 -48.5,-142.84 8.67,-187.24 39.54,-30.71 94.69304,-26.73 122.97304,8.87 21.789,27.44 18.276,51.13 -12.803,75.88 14.585,-30.65 10.023,-55.76 -18.005,-73.05 -27.57504,-17.02 -53.05504,-8.39 -76.25504,10.37 -13.11,10.6 -22.39,24 -28.07,40.16 -17.05,48.53 7.78,104.51 59.43,131.33 51.95804,26.97 102.10504,20.92 147.80604,-13.54 52.594,-39.65 77.016,-94.01 67.466,-159.39 -12.557,-85.98 -78.929,-149.83 -167.704,-166.55 -84.09804,-15.84 -179.07804,29.27 -225.63804,107.17 -31.18,52.16 -42.34,108.58 -34.73,162.59 24.76,114.54 126.64,200.37 248.58,200.37 40.13104,0 78.08004,-9.31 111.83304,-25.86 -41.456,15.72 -87.401,18.93 -137.74304,8.18 -91.85,-19.63 -151.53,-76.38 -174.78,-168.02 -32.93,-129.77 71.61,-250.06 201.87804,-233.63 94.953,11.97 149.526,110.18 106.672,191.96 17.378,-78.48 -4.797,-133.23 -66.16,-163.36 -62.57004,-30.71 -139.71004,-12.34 -186.69004,44.47 -71.55,86.51 -46,219.5 53.7,279.51 78.46,47.22 169.90804,42.96 245.08004,-11.4 70.006,-50.63 107.197,-141.37 95.362,-227.57 -23.763,-115.84 -126.281,-202.97 -249.15204,-202.97 -47.38,0 -91.72,12.97 -129.7,35.53 60.57,-28.82 131.75404,-32.75 197.15704,-6.86"
       style="fill:url(#radialGradient9283);fill-opacity:1;fill-rule:nonzero;stroke:none;stroke-width:0.09975;stroke-miterlimit:4;stroke-dasharray:none"
       id="path870" /><path
       d="m 731.76201,1200.2337 h 105.78 v 5.14 h -105.78 v -5.14"
       style="fill:#231f20;fill-opacity:1;fill-rule:nonzero;stroke:none;stroke-width:0.1"
       id="path892" /><path
       d="M 62.458012,1200.2337 H 168.24301 v 5.14 H 62.458012 v -5.14"
       style="fill:#231f20;fill-opacity:1;fill-rule:nonzero;stroke:none;stroke-width:0.1"
       id="path894" /><text
       xml:space="preserve"
       style="font-style:normal;font-variant:normal;font-weight:normal;font-stretch:normal;font-size:155px;line-height:1.25;font-family:'Distortion Dos Analogue';-inkscape-font-specification:'Distortion Dos Analogue, Normal';font-variant-ligatures:normal;font-variant-caps:normal;font-variant-numeric:normal;font-variant-east-asian:normal;fill:#000000;fill-opacity:1;stroke:none;stroke-width:3.37209"
       x="134.06061"
       y="-1244.0702"
       id="text3089"
       transform="scale(1,-1)"><tspan
         sodipodi:role="line"
         id="tspan3087"
         style="font-style:normal;font-variant:normal;font-weight:normal;font-stretch:normal;font-size:155px;font-family:'Distortion Dos Analogue';-inkscape-font-specification:'Distortion Dos Analogue, Normal';font-variant-ligatures:normal;font-variant-caps:normal;font-variant-numeric:normal;font-variant-east-asian:normal;stroke-width:3.37209"
         x="134.06061"
         y="-1244.0702">Zyclone</tspan></text><text
       xml:space="preserve"
       style="font-style:normal;font-variant:normal;font-weight:normal;font-stretch:normal;font-size:53px;line-height:1.25;font-family:'Liberation Sans';-inkscape-font-specification:'Liberation Sans, Normal';font-variant-ligatures:normal;font-variant-caps:normal;font-variant-numeric:normal;font-variant-east-asian:normal;fill:#000000;fill-opacity:1;stroke:none;stroke-width:0.75"
       x="199.46808"
       y="-1184.5541"
       id="text3225"
       transform="scale(1,-1)"><tspan
         sodipodi:role="line"
         id="tspan3223"
         style="font-style:normal;font-variant:normal;font-weight:normal;font-stretch:normal;font-size:53px;font-family:'Liberation Sans';-inkscape-font-specification:'Liberation Sans, Normal';font-variant-ligatures:normal;font-variant-caps:normal;font-variant-numeric:normal;font-variant-east-asian:normal;stroke-width:0.75"
         x="199.46808"
         y="-1184.5541">G A M E  E N G I N E</tspan></text></g></svg>
